<?xml version="1.0" standalone="no"?>
<!DOCTYPE svg PUBLIC "-//W3C//DTD SVG 20010904//EN"
 "http://www.w3.org/TR/2001/REC-SVG-20010904/DTD/svg10.dtd">
<svg version="1.0" xmlns="http://www.w3.org/2000/svg"
 width="880.000000pt" height="174.000000pt" viewBox="0 0 880.000000 174.000000"
 preserveAspectRatio="xMidYMid meet">

<g transform="translate(0.000000,174.000000) scale(0.100000,-0.100000)"
fill="green" stroke="none">
<path d="M0 870 l0 -870 4400 0 4400 0 0 870 0 870 -4400 0 -4400 0 0 -870z
m726 825 c45 -18 102 -72 127 -119 21 -39 22 -54 25 -349 l3 -308 -303 3
c-289 3 -305 4 -344 25 -165 88 -192 307 -52 427 41 35 118 66 165 66 20 0 23
5 23 38 0 68 46 144 123 202 50 38 161 45 233 15z m551 10 c101 -30 173 -112
188 -217 l7 -46 47 -7 c148 -20 251 -165 221 -309 -12 -60 -51 -121 -98 -155
-67 -47 -97 -51 -398 -51 l-284 0 0 299 c0 186 4 310 11 328 29 78 88 132 172
159 55 17 74 17 134 -1z m3301 -295 c66 -29 135 -103 157 -171 10 -28 15 -52
13 -54 -5 -5 -272 -105 -273 -102 0 1 -9 20 -20 42 -15 30 -27 41 -48 43 -37
4 -72 -20 -96 -66 -30 -58 -63 -226 -68 -347 -5 -123 1 -141 53 -151 54 -10
114 62 114 139 0 14 -9 17 -45 17 -52 0 -52 -2 -32 135 l12 80 193 3 194 2 -7
-67 c-31 -328 -126 -495 -311 -553 -179 -55 -356 -2 -427 128 -112 206 -48
644 120 823 55 59 96 86 171 110 80 27 226 21 300 -11z m1882 1 c84 -32 80
-21 57 -161 -11 -69 -21 -127 -23 -129 -2 -2 -31 11 -65 28 -104 52 -189 37
-189 -34 0 -28 14 -48 86 -127 99 -106 134 -171 141 -262 15 -176 -86 -325
-251 -372 -92 -26 -271 -16 -349 19 -54 25 -58 29 -53 54 3 16 10 57 16 93 6
36 15 89 21 118 l10 52 29 -20 c87 -62 210 -81 250 -38 29 31 26 86 -6 134
-14 21 -57 71 -94 109 -87 90 -102 122 -108 217 -10 164 70 283 224 332 70 23
231 16 304 -13z m-3710 -251 l5 -254 81 254 81 255 177 3 c167 2 176 2 176
-17 0 -28 -79 -949 -86 -998 l-5 -43 -130 0 c-87 0 -129 4 -129 11 0 6 18 155
40 332 23 176 39 327 38 335 -2 8 -53 -140 -114 -329 l-111 -344 -104 0 -104
0 -5 342 c-3 188 -7 344 -10 347 -4 3 -35 -146 -69 -332 -35 -185 -66 -343
-68 -349 -4 -10 -40 -13 -135 -13 -100 0 -129 3 -126 13 3 6 58 245 124 530
l119 517 175 -2 175 -3 5 -255z m1209 243 c0 -10 -8 -67 -17 -128 l-18 -110
-116 -3 -116 -3 -6 -47 c-4 -26 -9 -55 -12 -64 -5 -16 4 -18 101 -18 104 0
105 0 100 -22 -2 -13 -12 -67 -20 -122 -9 -54 -18 -103 -21 -107 -3 -5 -49 -9
-103 -9 l-98 0 -7 -42 c-4 -24 -9 -53 -13 -65 -5 -23 -4 -23 111 -23 l117 0
-6 -32 c-3 -18 -14 -80 -23 -138 l-18 -105 -266 -3 c-250 -2 -266 -1 -262 15
6 26 164 1021 164 1033 0 6 94 10 265 10 246 0 265 -1 264 -17z m1421 5 c0 -7
16 -233 35 -503 19 -269 35 -502 35 -517 l0 -28 -150 0 -150 0 0 75 0 76 -87
-3 -87 -3 -19 -73 -20 -72 -154 0 c-84 0 -153 3 -153 7 0 3 88 242 196 530
l197 523 178 0 c137 0 179 -3 179 -12z m1800 5 c0 -5 -9 -60 -20 -123 -11 -63
-20 -118 -20 -122 0 -5 -51 -8 -114 -8 l-114 0 -6 -37 c-4 -21 -9 -50 -12 -65
l-6 -28 105 0 104 0 -18 -117 c-10 -64 -20 -122 -23 -130 -4 -10 -31 -13 -105
-13 l-99 0 -6 -27 c-3 -16 -8 -45 -12 -65 l-6 -38 111 0 c109 0 111 -1 111
-22 -1 -33 -36 -247 -42 -253 -3 -3 -122 -4 -265 -3 l-259 3 77 495 c43 272
80 510 84 527 l6 33 264 0 c146 0 265 -3 265 -7z m390 2 c0 -15 82 -484 88
-503 5 -15 22 67 52 243 l45 265 127 0 c115 0 128 -2 127 -17 0 -10 -37 -247
-82 -528 l-82 -510 -139 0 -140 0 -45 248 c-25 136 -48 244 -51 240 -4 -5 -24
-109 -44 -233 -21 -124 -40 -233 -42 -242 -5 -16 -20 -18 -135 -18 l-131 0 6
27 c3 16 40 242 81 503 41 261 78 487 81 503 l6 27 139 0 c76 0 139 -2 139 -5z
m1070 -22 c0 -16 16 -248 35 -518 19 -269 35 -496 35 -503 0 -10 -34 -12 -152
-10 l-153 3 -3 73 -3 73 -81 -3 -82 -3 -21 -70 -21 -70 -152 -3 c-90 -1 -152
1 -152 7 0 5 86 238 190 518 105 279 192 514 195 521 3 9 50 12 185 12 l180 0
0 -27z m-2790 -533 l0 -90 -115 0 -115 0 0 90 0 90 115 0 115 0 0 -90z m-4970
-302 c0 -273 -2 -296 -21 -338 -25 -55 -71 -105 -124 -133 -56 -30 -164 -30
-220 0 -80 43 -144 138 -145 214 0 36 0 36 -49 42 -233 28 -313 326 -122 458
64 45 82 47 389 48 l292 1 0 -292z m716 268 c105 -49 167 -165 145 -275 -24
-117 -127 -209 -238 -211 -28 0 -33 -4 -33 -23 0 -13 -7 -47 -16 -76 -29 -99
-140 -181 -244 -181 -95 0 -191 64 -231 152 -23 51 -24 64 -27 331 -2 153 -1
285 2 293 4 12 53 14 298 14 287 0 294 -1 344 -24z"/>
<path d="M5107 930 c-27 -88 -51 -168 -54 -180 -5 -18 -1 -20 45 -20 l49 0 8
176 c4 96 5 177 3 179 -1 2 -25 -68 -51 -155z"/>
<path d="M8357 903 c-26 -87 -47 -161 -47 -165 0 -5 23 -8 50 -8 l50 0 0 165
c0 91 -1 165 -3 165 -2 0 -24 -71 -50 -157z"/>
</g>
</svg>
